<?xml version="1.0" standalone="no"?>
<!DOCTYPE svg PUBLIC "-//W3C//DTD SVG 20010904//EN"
 "http://www.w3.org/TR/2001/REC-SVG-20010904/DTD/svg10.dtd">
<svg version="1.0" xmlns="http://www.w3.org/2000/svg"
 width="1024.000000pt" height="1024.000000pt" viewBox="0 0 1024.000000 1024.000000"
 preserveAspectRatio="xMidYMid meet">

<g transform="translate(0.000000,1024.000000) scale(0.100000,-0.100000)"
fill="#000000" stroke="none">
<path d="M4865 9016 c-59 -19 -101 -43 -145 -82 l-39 -35 -192 52 c-183 49
-194 51 -244 40 -127 -29 -225 -144 -225 -267 0 -66 37 -157 83 -202 46 -45
126 -82 180 -82 17 0 115 20 217 45 134 32 188 41 197 33 10 -8 13 -52 13
-173 l0 -162 -37 -7 c-21 -3 -69 -6 -107 -6 -94 0 -144 -25 -188 -93 -29 -46
-33 -61 -36 -133 -3 -66 0 -91 16 -128 12 -25 26 -46 31 -46 6 0 11 -4 11 -10
0 -6 -43 -10 -110 -10 l-110 0 -24 49 c-64 126 -228 177 -359 111 -52 -26
-105 -87 -114 -132 l-5 -28 -157 0 c-174 0 -227 -9 -379 -66 -180 -67 -333
-178 -449 -327 -135 -171 -189 -321 -200 -560 -6 -108 -8 -119 -27 -127 -28
-11 -62 -48 -75 -83 -6 -16 -11 -70 -11 -121 0 -108 22 -165 80 -203 33 -23
34 -23 451 -23 l419 0 41 38 c57 50 69 84 69 191 0 78 -3 95 -28 142 -25 48
-33 55 -70 63 l-42 9 0 72 c0 64 3 77 30 113 16 23 54 57 82 76 49 32 60 35
160 42 l107 7 10 -39 c39 -145 204 -212 356 -145 58 26 123 101 131 151 l7 40
124 0 125 0 56 -51 c64 -57 166 -110 262 -136 89 -24 290 -24 380 0 83 23 230
95 298 147 l52 40 135 0 134 0 11 -40 c15 -57 68 -120 125 -149 103 -53 261
-18 326 72 16 22 29 51 29 65 0 24 2 24 46 18 26 -3 60 -6 76 -6 23 0 43 -14
89 -59 32 -33 59 -64 59 -70 0 -5 -16 -13 -37 -17 -44 -8 -107 -63 -135 -118
-30 -58 -36 -172 -13 -233 20 -52 75 -117 116 -139 16 -8 46 -14 68 -14 l39 0
7 -83 c16 -187 -49 -319 -193 -395 -94 -49 -142 -55 -366 -49 -111 3 -251 3
-312 -1 l-112 -7 39 -65 c21 -36 42 -69 46 -75 5 -6 115 -8 313 -5 281 5 310
8 372 28 96 32 212 113 270 189 60 80 86 162 101 325 l11 126 128 -1 128 -2 0
-156 c0 -242 -37 -361 -160 -506 -65 -78 -136 -135 -230 -186 -154 -84 -251
-103 -549 -111 -111 -2 -205 -7 -208 -9 -2 -3 9 -45 26 -94 23 -68 51 -225 51
-288 0 -3 111 -5 248 -5 228 0 255 2 347 24 236 58 431 170 610 352 137 139
205 257 266 464 19 65 22 106 26 302 l5 227 48 11 c170 41 238 250 130 399
-37 50 -113 101 -152 101 -30 0 -29 -2 -48 113 -23 145 -99 306 -208 440 -146
180 -364 320 -592 379 -96 26 -134 30 -230 30 l-115 0 -27 44 c-30 49 -100 98
-163 115 -111 30 -238 -33 -292 -146 -14 -30 -20 -33 -76 -39 -33 -3 -79 -6
-103 -6 l-44 0 21 40 c26 50 37 180 20 233 -16 47 -64 108 -104 130 -26 14
-57 17 -159 17 l-128 0 0 163 c1 141 3 165 19 184 l18 21 71 -23 c39 -13 123
-35 187 -51 104 -24 121 -26 168 -15 109 24 182 93 213 198 37 126 -21 258
-139 319 -55 29 -134 29 -228 1 -46 -14 -128 -37 -182 -51 l-98 -26 -29 33
c-42 48 -117 85 -196 97 -83 12 -79 12 -129 -4z m155 -164 c81 -40 102 -129
51 -218 -38 -66 -74 -83 -140 -65 -25 7 -57 19 -69 27 -30 20 -61 89 -62 135
0 71 73 139 150 139 19 0 51 -8 70 -18z m-639 -31 c35 -11 106 -27 158 -35 52
-9 96 -18 98 -20 2 -2 1 -22 -3 -44 -6 -40 -8 -42 -68 -61 -110 -35 -246 -71
-269 -71 -32 0 -84 35 -108 72 -30 49 -20 104 25 145 43 39 75 42 167 14z
m1283 -2 c33 -26 56 -69 56 -106 0 -35 -31 -87 -66 -109 -29 -20 -8 -22 -252
33 l-124 28 -3 53 c-4 47 -2 52 18 56 74 13 233 49 251 56 39 16 92 11 120
-11z m-636 -524 l2 -115 -75 0 -75 0 0 111 0 112 48 -6 c26 -3 56 -2 67 3 11
5 22 9 25 9 3 1 6 -51 8 -114z m362 -285 c27 -14 36 -75 19 -125 l-14 -40
-409 -8 c-225 -4 -416 -5 -423 -3 -25 10 -55 92 -47 131 8 45 19 53 79 58 93
9 775 -3 795 -13z m640 -235 c54 -28 55 -34 58 -390 2 -181 0 -345 -3 -364
-15 -78 -88 -104 -147 -52 -29 26 -32 35 -33 82 0 30 1 193 3 363 l2 308 34
34 c38 38 45 40 86 19z m-2050 -23 c19 -19 30 -44 35 -73 3 -24 5 -189 3 -366
l-3 -322 -29 -30 c-51 -54 -124 -30 -146 47 -11 41 -14 648 -4 702 8 35 53 70
92 70 13 0 36 -13 52 -28z m1422 -107 l50 -45 148 0 148 0 4 -81 c2 -44 2
-145 0 -224 l-4 -144 -152 2 -151 2 -85 -56 c-149 -99 -231 -131 -360 -144
-142 -13 -277 28 -425 129 l-90 61 -152 3 -152 4 2 218 2 218 155 3 c167 4
172 6 235 64 l29 28 196 -5 c156 -5 471 2 539 10 7 1 36 -18 63 -43z m1149
-46 c48 -11 132 -43 194 -73 95 -46 125 -68 208 -146 111 -105 152 -158 203
-261 31 -63 84 -236 84 -275 0 -11 -52 -14 -278 -14 l-279 0 -14 42 c-17 52
-72 126 -124 169 -64 51 -131 77 -217 85 l-78 7 0 196 c0 108 -3 220 -7 250
l-6 54 115 -7 c63 -4 152 -16 199 -27z m-2881 -218 c0 -116 -3 -217 -6 -225
-3 -9 -35 -15 -101 -20 -148 -10 -261 -56 -340 -138 -60 -62 -109 -191 -101
-263 l4 -35 -238 0 -238 0 0 88 c0 125 30 256 82 360 36 72 60 104 143 187
128 128 261 203 420 237 41 9 362 27 373 21 2 0 3 -96 2 -212z m3679 -717 c53
-5 69 -11 93 -34 38 -38 38 -88 1 -130 l-28 -30 -445 -1 -444 -1 -28 33 c-18
21 -28 45 -28 65 0 44 39 98 75 105 37 6 715 1 804 -7z m-4089 -189 l0 -75
-355 0 -355 0 -2 38 c-2 48 0 82 6 99 4 10 75 13 356 13 l350 0 0 -75z"/>
<path d="M4912 6585 c-12 -19 -77 -137 -143 -262 -145 -271 -180 -333 -273
-478 -120 -188 -236 -405 -295 -551 -67 -166 -85 -257 -85 -419 -1 -163 10
-207 84 -360 113 -231 293 -376 545 -440 107 -27 194 -31 308 -14 98 14 157
34 257 85 201 103 351 283 416 499 24 81 27 106 27 250 1 144 -2 170 -27 260
-47 171 -124 329 -291 595 -141 224 -220 365 -340 602 -110 217 -139 268 -154
268 -3 0 -16 -16 -29 -35z m93 -422 c37 -76 118 -224 181 -331 63 -106 114
-195 114 -198 0 -3 -4 -2 -10 1 -5 3 -10 -2 -10 -12 0 -10 -12 -24 -29 -31
-43 -19 -48 -56 -18 -128 107 -257 129 -495 65 -690 -37 -114 -148 -211 -288
-255 -103 -32 -276 -33 -365 -1 -33 11 -61 19 -63 17 -3 -2 5 -16 17 -31 11
-15 21 -34 21 -43 0 -9 7 -27 16 -39 14 -21 14 -22 -5 -22 -14 0 -21 -6 -21
-19 0 -26 -22 -41 -50 -36 -27 5 -80 53 -80 72 0 7 -7 10 -17 7 -15 -5 -15 -3
1 10 11 9 15 16 9 16 -6 0 -9 9 -6 20 3 11 11 20 17 20 7 0 17 5 23 11 15 15
-14 76 -66 139 -21 25 -43 56 -50 68 -7 13 -15 21 -18 19 -2 -3 2 -16 11 -29
8 -12 18 -54 22 -91 4 -37 10 -70 15 -73 4 -2 6 -11 3 -19 -3 -7 -1 -23 6 -34
6 -12 7 -21 1 -21 -13 0 -105 164 -126 225 -43 124 -24 377 40 545 48 127 88
202 268 502 183 304 273 462 301 526 11 23 20 42 21 42 2 0 33 -62 70 -137z"/>
<path d="M3480 5779 c-213 -23 -390 -94 -565 -228 -209 -159 -346 -360 -417
-611 -20 -70 -21 -104 -25 -512 l-4 -438 79 0 79 0 -1 413 -1 412 28 100 c53
187 153 349 289 466 83 72 127 100 238 155 175 86 183 87 639 93 l404 6 44 73
c24 41 43 75 43 76 0 6 -770 1 -830 -5z"/>
<path d="M3775 5339 c-269 -6 -283 -8 -365 -34 -133 -43 -212 -88 -297 -168
-182 -172 -232 -321 -234 -692 0 -88 -4 -225 -9 -305 -4 -80 -7 -146 -6 -147
1 -1 103 -3 226 -3 l225 -1 1 313 c0 297 1 316 22 376 41 116 98 178 210 230
54 25 67 27 237 30 l181 4 11 92 c6 55 26 137 48 201 20 59 35 108 33 109 -2
0 -129 -2 -283 -5z"/>
<path d="M7798 4623 c12 -2 32 -2 45 0 12 2 2 4 -23 4 -25 0 -35 -2 -22 -4z"/>
<path d="M8030 4609 c41 -11 84 -23 95 -28 75 -32 103 -47 99 -53 -3 -5 2 -8
11 -8 14 0 15 -8 10 -47 l-5 -48 40 -17 c21 -9 49 -14 61 -11 18 5 21 3 16
-10 -3 -9 1 -18 10 -21 20 -8 23 -5 35 41 19 76 23 72 -103 123 -110 45 -298
101 -330 99 -8 0 20 -10 61 -20z"/>
<path d="M7718 4613 c7 -3 16 -2 19 1 4 3 -2 6 -13 5 -11 0 -14 -3 -6 -6z"/>
<path d="M6118 4593 c7 -3 16 -2 19 1 4 3 -2 6 -13 5 -11 0 -14 -3 -6 -6z"/>
<path d="M6138 4314 c-26 -8 -54 -24 -63 -36 -17 -25 -20 -42 -5 -33 6 3 7 -1
4 -9 -3 -9 -3 -16 0 -16 13 0 66 44 66 54 0 11 29 34 60 48 28 13 -12 8 -62
-8z"/>
<path d="M8155 4304 c22 -8 51 -17 65 -20 13 -3 27 -9 30 -13 4 -6 41 -23 47
-22 2 1 19 -8 39 -19 19 -11 39 -18 45 -15 21 13 7 -25 -16 -43 -13 -11 -21
-22 -18 -26 3 -3 1 -6 -5 -6 -7 0 -12 4 -12 9 0 5 -12 8 -27 8 -23 0 -17 -5
32 -28 33 -16 62 -25 66 -21 4 4 9 31 11 59 l5 53 -66 30 c-65 31 -191 70
-221 70 -8 -1 3 -8 25 -16z"/>
<path d="M8255 4240 c-3 -6 1 -7 9 -4 18 7 21 14 7 14 -6 0 -13 -4 -16 -10z"/>
<path d="M7870 4230 c-12 -8 -11 -10 8 -10 12 0 22 5 22 10 0 13 -11 13 -30 0z"/>
<path d="M7928 4223 c6 -2 18 -2 25 0 6 3 1 5 -13 5 -14 0 -19 -2 -12 -5z"/>
<path d="M7818 4213 c6 -2 18 -2 25 0 6 3 1 5 -13 5 -14 0 -19 -2 -12 -5z"/>
<path d="M8033 4213 c9 -2 23 -2 30 0 6 3 -1 5 -18 5 -16 0 -22 -2 -12 -5z"/>
<path d="M8090 4210 c8 -5 20 -10 25 -10 6 0 3 5 -5 10 -8 5 -19 10 -25 10 -5
0 -3 -5 5 -10z"/>
<path d="M7155 4170 c-4 -7 3 -8 22 -4 38 9 42 14 10 14 -14 0 -29 -5 -32 -10z"/>
<path d="M7118 4163 c7 -3 16 -2 19 1 4 3 -2 6 -13 5 -11 0 -14 -3 -6 -6z"/>
<path d="M7013 4153 c9 -2 25 -2 35 0 9 3 1 5 -18 5 -19 0 -27 -2 -17 -5z"/>
<path d="M7360 4135 c-30 -7 -63 -16 -72 -20 -10 -4 -37 -8 -60 -9 -36 -1 -43
-5 -49 -26 -4 -14 -7 -20 -8 -13 -1 7 -8 10 -17 6 -9 -3 -12 -9 -6 -15 6 -6
47 4 108 25 55 19 116 37 137 41 20 4 37 11 37 16 0 12 1 12 -70 -5z"/>
<path d="M2644 3602 l29 -32 -2 -377 c-2 -368 -3 -379 -23 -400 -12 -13 -20
-24 -17 -25 2 -2 150 -2 329 0 l325 3 0 99 c0 86 -2 99 -15 93 -8 -5 -104 -9
-213 -11 l-199 -3 4 310 3 309 24 26 c14 14 23 28 20 30 -2 2 -29 0 -59 -6
-53 -10 -158 -6 -210 8 l-25 7 29 -31z"/>
<path d="M3360 3624 c0 -4 10 -18 23 -32 21 -23 22 -31 27 -295 l5 -272 29
-59 c37 -76 96 -135 172 -172 53 -26 69 -29 164 -29 97 0 110 2 170 31 82 39
154 108 188 182 27 57 27 58 30 327 l4 270 26 28 c14 15 22 27 18 27 -4 0 -37
-5 -74 -10 -42 -7 -93 -7 -137 -1 -38 4 -72 7 -74 5 -3 -2 5 -14 17 -27 21
-23 22 -31 22 -253 0 -239 -6 -290 -37 -333 -67 -92 -228 -84 -295 14 l-27 40
-3 257 c-2 232 -1 258 15 275 25 29 21 33 -20 21 -36 -10 -196 -4 -228 8 -8 4
-15 3 -15 -2z"/>
<path d="M4366 3599 l26 -27 -4 -373 c-3 -370 -3 -374 -26 -406 l-22 -31 135
1 c74 1 135 4 135 7 0 4 -6 12 -12 19 -10 9 -13 69 -13 231 0 146 3 216 10
209 6 -5 60 -76 120 -156 61 -81 115 -148 120 -150 6 -1 21 14 35 34 14 20 63
85 110 143 47 59 93 118 103 131 17 23 18 16 14 -199 -3 -189 -6 -225 -21
-240 -9 -10 -16 -20 -16 -23 0 -2 63 -4 140 -5 l140 -1 -22 25 c-23 24 -23 25
-26 403 l-3 379 27 25 c15 14 25 28 22 30 -3 3 -27 1 -54 -5 -27 -6 -75 -10
-107 -9 l-58 3 -55 -75 c-31 -41 -71 -90 -89 -109 -18 -19 -58 -69 -87 -111
l-55 -76 -74 95 c-68 87 -183 251 -191 271 -2 5 -53 11 -115 13 l-112 3 25
-26z"/>
<path d="M5480 3622 c0 -5 9 -17 20 -27 19 -17 20 -31 20 -390 l0 -372 -24
-35 -23 -35 171 4 c336 7 357 8 413 33 67 28 139 104 149 155 9 50 -2 125 -24
155 -11 14 -38 39 -61 57 -38 30 -40 33 -22 42 11 6 29 27 41 46 73 118 27
251 -108 317 l-67 33 -230 5 c-126 3 -236 9 -242 13 -7 5 -13 4 -13 -1z m469
-228 c28 -35 26 -69 -4 -99 -22 -23 -31 -25 -125 -25 l-100 0 0 75 0 75 104 0
c101 0 105 -1 125 -26z m18 -304 c46 -29 49 -95 6 -118 -10 -6 -71 -11 -135
-13 l-118 -4 0 75 0 75 113 -1 c77 0 119 -5 134 -14z"/>
<path d="M6340 3620 c0 -4 11 -17 25 -30 l25 -23 0 -377 c0 -371 0 -378 -21
-405 l-22 -27 99 7 c56 4 117 2 142 -3 47 -11 50 -8 25 21 -16 17 -18 54 -21
405 l-3 385 28 30 28 30 -34 -7 c-75 -14 -139 -17 -203 -8 -38 5 -68 6 -68 2z"/>
<path d="M6793 3601 l27 -33 0 -375 c0 -352 -1 -377 -19 -401 l-19 -27 132 0
133 0 -19 30 c-16 27 -18 54 -18 245 l1 215 42 -50 c23 -27 80 -90 126 -139
45 -50 121 -136 168 -193 l86 -103 73 0 c40 0 80 -3 90 -7 17 -6 17 -5 1 17
-15 22 -17 65 -17 414 l0 390 23 24 22 24 -27 -7 c-39 -10 -199 -11 -233 -2
l-30 9 28 -29 27 -29 0 -216 c0 -119 -4 -219 -9 -222 -4 -3 -13 5 -18 17 -6
12 -39 54 -74 93 -35 40 -118 140 -184 222 l-120 151 -92 0 c-50 1 -100 4
-110 8 -14 5 -11 -1 10 -26z"/>
<path d="M1760 3609 c0 -3 9 -14 20 -24 19 -17 20 -31 20 -393 0 -351 -1 -376
-19 -400 l-19 -27 127 2 c69 2 130 3 134 3 5 0 -1 12 -12 26 -18 22 -21 41
-21 114 l0 88 128 4 c102 4 138 9 186 28 125 48 195 160 183 292 -13 144 -119
250 -278 278 -60 10 -449 18 -449 9z m444 -203 c51 -21 76 -60 76 -117 0 -40
-5 -55 -29 -81 l-29 -33 -115 -3 -116 -4 2 126 2 126 88 0 c52 0 101 -6 121
-14z"/>
<path d="M8018 3591 c-146 -47 -233 -153 -258 -318 -14 -91 0 -208 35 -278 52
-108 180 -201 309 -224 104 -19 253 18 339 83 l42 32 0 182 0 182 -135 0 c-74
0 -152 3 -173 6 l-38 7 5 -39 c3 -22 8 -60 11 -86 l6 -48 65 0 64 0 0 -54 c0
-67 -11 -77 -95 -83 -56 -5 -72 -2 -119 21 -117 57 -161 169 -121 304 38 127
155 182 287 134 26 -9 63 -32 82 -50 l34 -32 22 35 c12 19 41 52 66 74 l44 39
-37 30 c-120 94 -296 127 -435 83z"/>
<path d="M3354 2457 c-62 -30 -84 -59 -84 -110 0 -56 54 -108 135 -131 33 -9
67 -20 75 -25 26 -14 22 -38 -8 -50 -35 -15 -93 -2 -124 25 -18 17 -20 16 -60
-24 l-42 -41 65 -31 c111 -52 230 -34 277 42 50 81 9 153 -103 182 -118 31
-138 49 -93 80 32 22 81 20 113 -6 l28 -22 28 35 c16 19 27 38 26 43 -6 19
-82 50 -131 53 -39 3 -63 -2 -102 -20z"/>
<path d="M3895 2473 l-140 -3 3 -215 3 -215 159 0 160 0 0 50 0 50 -110 0
-110 0 0 40 0 40 85 0 85 0 0 40 0 40 -85 0 -85 0 0 40 0 40 105 0 105 0 0 50
c0 42 -3 50 -17 48 -10 -1 -81 -4 -158 -5z"/>
<path d="M4231 2261 l1 -221 49 0 49 0 0 70 0 70 39 0 c37 0 42 -4 90 -69 l50
-69 43 5 c24 3 44 6 45 7 1 1 -19 31 -44 69 l-45 67 31 26 c68 57 64 152 -9
218 l-40 36 -114 0 c-63 0 -121 3 -130 6 -14 5 -16 -18 -15 -215z m219 106
c27 -13 37 -52 21 -76 -6 -10 -33 -16 -75 -19 l-66 -4 0 49 c0 27 3 53 7 56
11 12 87 7 113 -6z"/>
<path d="M4680 2475 c0 -6 144 -371 161 -407 11 -25 18 -28 59 -28 l47 0 48
103 c45 97 135 314 135 326 0 3 -25 5 -56 5 l-55 -2 -54 -132 c-54 -131 -62
-147 -69 -139 -7 9 -96 255 -96 267 0 8 -19 12 -60 12 -33 0 -60 -2 -60 -5z"/>
<path d="M5272 2296 c-2 -99 0 -196 3 -213 6 -32 7 -33 60 -33 l55 0 -3 213
-2 214 -55 0 -55 1 -3 -182z"/>
<path d="M5727 2466 c-103 -37 -157 -107 -157 -205 0 -61 23 -112 72 -157 44
-42 89 -64 132 -64 49 0 138 35 166 65 l24 26 -32 32 -32 32 -49 -28 c-67 -37
-92 -35 -141 11 -35 34 -40 44 -40 84 0 41 4 50 41 83 38 34 46 37 83 32 29
-4 49 -15 68 -36 l27 -30 26 35 c14 19 33 34 42 34 32 0 -38 59 -94 80 -62 23
-84 24 -136 6z"/>
<path d="M6120 2264 l0 -219 157 2 c102 2 159 6 161 13 2 6 1 27 -2 46 l-7 34
-105 0 -105 0 3 37 3 38 77 -3 c75 -4 77 -3 83 21 14 55 6 62 -78 65 l-77 3 0
39 0 40 105 0 105 0 0 45 0 45 -114 0 c-62 0 -134 3 -160 6 l-46 7 0 -219z"/>
<path d="M6662 2460 c-64 -39 -89 -113 -56 -170 22 -35 61 -58 137 -79 50 -13
63 -20 65 -39 6 -43 -86 -53 -144 -16 -17 11 -28 13 -42 5 -19 -10 -57 -60
-50 -66 16 -14 112 -47 148 -52 128 -15 242 87 196 175 -22 43 -59 68 -119 82
-28 7 -64 19 -79 27 -51 25 -28 63 38 63 33 0 47 -5 62 -24 l19 -25 37 38 c42
43 40 46 -35 80 -58 27 -134 27 -177 1z"/>
<path d="M2168 2299 c-25 -14 -24 -65 1 -79 13 -6 167 -10 434 -10 388 0 415
1 430 18 23 25 21 59 -2 72 -27 14 -839 13 -863 -1z"/>
<path d="M7142 2298 c-19 -19 -14 -55 10 -72 19 -14 78 -16 441 -16 269 0 425
4 438 10 12 7 19 21 19 40 0 19 -7 33 -19 40 -30 15 -873 14 -889 -2z"/>
</g>
</svg>
